Coordinates
version=1
nRows=21
nColumns=22
inDegrees=yes

Units are S.I. units (second, meters, Newtons, ...)
If the header above contains a line with 'inDegrees', this indicates whether rotational values are in degrees (yes) or radians (no).

endheader
time	pelvis_tilt	pelvis_list	pelvis_rotation	pelvis_tx	pelvis_ty	pelvis_tz	hip_flexion_r	hip_adduction_r	hip_rotation_r	knee_angle_r	ankle_angle_r	subtalar_angle_r	hip_flexion_l	hip_adduction_l	hip_rotation_l	knee_angle_l	ankle_angle_l	subtalar_angle_l	lumbar_extension	lumbar_bending	lumbar_rotation
      3.56000000	     -3.26206197	     -2.60906497	    -78.68174737	     -0.00118752	      0.94442223	      0.98659115	     -1.60840927	     10.49745234	      9.02499672	    -20.87126535	     17.65532644	     -4.89090894	     24.94125140	     -7.36541069	      9.47582839	    -16.72376319	      9.08933016	      8.09156140	     -8.09758415	      3.54122016	      7.62395900
      3.57000000	     -3.33475001	     -2.55059653	    -78.96226877	      0.00185529	      0.94359702	      0.99243502	     -1.75626117	     10.43816455	      9.23873692	    -21.27718665	     17.89995750	     -4.70008628	     24.94955727	     -7.32355656	      9.09438725	    -16.55084381	      9.04600910	      8.02044282	     -7.97782855	      3.52853863	      7.73481706
      3.58000000	     -3.41958114	     -2.49388590	    -79.25629509	      0.00489567	      0.94277736	      0.99831709	     -1.89309953	     10.39215992	      9.46705429	    -21.70742759	     18.11917147	     -4.50464663	     24.96916315	     -7.28239076	      8.63692849	    -16.62309495	      8.94856120	      7.90720053	     -7.85624516	      3.52513298	      7.85728758
      3.59000000	     -3.51198099	     -2.43137517	    -79.57007328	      0.00794050	      0.94197211	      1.00423920	     -2.01733946	     10.35174810	      9.72487134	    -22.15324660	     18.30630211	     -4.29487554	     24.99578829	     -7.24006708	      8.14525193	    -16.89670969	      8.76496166	      7.70958442	     -7.72411508	      3.52641987	      8.00127711
      3.60000000	     -3.61351527	     -2.35724676	    -79.89302664	      0.01099223	      0.94119504	      1.01020479	     -2.12707603	     10.31772051	     10.00528384	    -22.60364501	     18.45347881	     -4.08474166	     25.02032799	     -7.19942215	      7.67419905	    -17.30365731	      8.46323267	      7.39024330	     -7.57495129	      3.53320097	      8.15020253
      3.61000000	     -3.73731178	     -2.27186161	    -80.18559714	      0.01412463	      0.94044603	      1.01617329	     -2.20881880	     10.29871036	     10.23742346	    -23.06821373	     18.58157399	     -3.74543044	     25.05105357	     -7.15123260	      7.34062319	    -17.79316894	      7.95187002	      6.64820759	     -7.40581822	      3.56781980	      8.24901390
      3.62000000	     -3.83467783	     -2.17313454	    -80.49553576	      0.01724997	      0.93980498	      1.02218269	     -2.28663998	     10.25251390	     10.53791808	    -23.52955592	     18.62876598	     -3.54365413	     25.06365477	     -7.08482184	      7.02736219	    -18.31617841	      7.32207278	      5.93579470	     -7.22517571	      3.56727213	      8.35097335
      3.63000000	     -3.92261541	     -2.05331436	    -80.80028239	      0.02040022	      0.93925229	      1.02818799	     -2.32660214	     10.19306882	     10.84442296	    -24.01627976	     18.63398039	     -3.35373267	     25.09041064	     -7.00383833	      6.78942025	    -18.85608824	      6.55099986	      5.08470403	     -7.02389280	      3.55219502	      8.44205343
      3.64000000	     -3.98982996	     -1.91107271	    -81.09340940	      0.02359045	      0.93881483	      1.03419312	     -2.32758774	     10.10898351	     11.15240166	    -24.52967587	     18.58950279	     -3.15578271	     25.14251547	     -6.89943052	      6.59396754	    -19.40464408	      5.67866683	      4.15301923	     -6.80010741	      3.51241515	      8.50636719
      3.65000000	     -4.02841194	     -1.74631981	    -81.38112250	      0.02681688	      0.93850277	      1.04019373	     -2.27875253	      9.99166881	     11.45102364	    -25.08756222	     18.50445935	     -2.94928561	     25.22637561	     -6.77050779	      6.40356430	    -19.96485739	      4.76356435	      3.23140775	     -6.55687702	      3.43918272	      8.57222393
      3.66000000	     -4.04270544	     -1.58079529	    -81.62880771	      0.03013474	      0.93836696	      1.04620696	     -2.20755145	      9.85139795	     11.71749117	    -25.67704549	     18.31618196	     -2.68608644	     25.30308266	     -6.60769271	      6.27852839	    -20.49871982	      3.82652828	      2.30653020	     -6.31209098	      3.34699703	      8.56778986
      3.67000000	     -4.03475496	     -1.40001474	    -81.87330087	      0.03347985	      0.93834695	      1.05223362	     -2.07827502	      9.68662493	     11.94244180	    -26.33254123	     18.09953762	     -2.41744034	     25.41002228	     -6.43592206	      6.11224248	    -21.06384835	      2.97646917	      1.53179483	     -6.05177111	      3.22994500	      8.57737387
      3.68000000	     -3.99568410	     -1.21503572	    -82.11383371	      0.03685329	      0.93847974	      1.05827971	     -1.89439601	      9.49795759	     12.15892499	    -27.07429133	     17.81615897	     -2.14305178	     25.47958496	     -6.24674476	      5.93803340	    -21.57369680	      2.21857262	      0.95871058	     -5.78734593	      3.08310738	      8.55230972
      3.69000000	     -3.97704882	     -1.05427358	    -82.30480906	      0.04034962	      0.93875622	      1.06434797	     -1.70313746	      9.32419389	     12.25717448	    -27.83529257	     17.41122254	     -1.71990591	     25.54477867	     -6.06892155	      5.79679468	    -22.11697098	      1.54634629	      0.35704950	     -5.54046700	      2.97510394	      8.50840194
      3.70000000	     -3.92688817	     -0.89565081	    -82.52020577	      0.04380375	      0.93915994	      1.07042394	     -1.44730039	      9.12914742	     12.35472070	    -28.70850029	     16.96676193	     -1.33820842	     25.54057731	     -5.88883350	      5.60139377	    -22.57508900	      1.00917728	      0.04125138	     -5.30066328	      2.83347192	      8.46617143
      3.71000000	     -3.89546603	     -0.75343318	    -82.70110683	      0.04733225	      0.93965675	      1.07648827	     -1.15862843	      8.95145984	     12.37104670	    -29.63147240	     16.40462349	     -0.75188283	     25.51212905	     -5.72215224	      5.41572813	    -23.01855829	      0.61375088	     -0.29017727	     -5.07352065	      2.72549904	      8.37514625
      3.72000000	     -3.83559998	     -0.62786082	    -82.91872130	      0.05078422	      0.94025341	      1.08249539	     -0.81315278	      8.75010387	     12.36590014	    -30.66324444	     15.80032071	     -0.27583975	     25.40411674	     -5.55296004	      5.17825843	    -23.37901782	      0.30946028	     -0.43695978	     -4.87947748	      2.58562607	      8.33375146
      3.73000000	     -3.80655993	     -0.51836522	    -83.10108769	      0.05427793	      0.94088987	      1.08843476	     -0.41950849	      8.57540878	     12.26737249	    -31.75533857	     15.07973543	      0.50177630	     25.26489219	     -5.40385516	      4.95326178	    -23.69579035	      0.17016704	     -0.66572449	     -4.70311054	      2.49549315	      8.20872300
      3.74000000	     -3.75954034	     -0.42588516	    -83.30476108	      0.05769471	      0.94156802	      1.09425463	      0.03177914	      8.38265199	     12.13488635	    -32.94094149	     14.29652167	      1.23726253	     25.06171553	     -5.24680569	      4.70045080	    -23.93633801	      0.10816533	     -0.85664760	     -4.56346613	      2.38608787	      8.09954021
      3.75000000	     -3.70890166	     -0.34330107	    -83.50924841	      0.06105676	      0.94224179	      1.09993609	      0.54930403	      8.18295898	     11.94818962	    -34.21103241	     13.44596934	      2.04491015	     24.82033630	     -5.08325517	      4.44323470	    -24.11857217	      0.12798325	     -1.09110508	     -4.45096691	      2.27670398	      7.97351913
      3.76000000	     -3.64762323	     -0.26023201	    -83.72287150	      0.06434752	      0.94288035	      1.10545893	      1.15214356	      7.96389103	     11.70209905	    -35.57627800	     12.55793043	      2.84831647	     24.54939594	     -4.90975676	      4.16278313	    -24.23650103	      0.20450672	     -1.35808950	     -4.35491588	      2.15775498	      7.84741030
